HIERARCHY
ROOT Hips
{
	OFFSET -0.001795 -0.223333 0.028219
	CHANNELS 6 Xposition Yposition Zposition Zrotation Yrotation Xrotation 
	JOINT LeftUpLeg
	{
		OFFSET 0.069520 -0.091406 -0.006815
		CHANNELS 3 Zrotation Yrotation Xrotation
		JOINT LeftLeg
		{
			OFFSET 0.034277 -0.375199 -0.004496
			CHANNELS 3 Zrotation Yrotation Xrotation
			JOINT LeftFoot
			{
				OFFSET -0.013596 -0.397961 -0.043693
				CHANNELS 3 Zrotation Yrotation Xrotation
				JOINT LeftToe
				{
					OFFSET 0.026358 -0.055791 0.119288
					CHANNELS 3 Zrotation Yrotation Xrotation
					End Site
					{
						OFFSET 0.000000 0.000000 0.000000
					}
				}
			}
		}
	}
	JOINT RightUpLeg
	{
		OFFSET -0.067670 -0.090522 -0.004320
		CHANNELS 3 Zrotation Yrotation Xrotation
		JOINT RightLeg
		{
			OFFSET -0.038290 -0.382569 -0.008850
			CHANNELS 3 Zrotation Yrotation Xrotation
			JOINT RightFoot
			{
				OFFSET 0.015774 -0.398415 -0.042312
				CHANNELS 3 Zrotation Yrotation Xrotation
				JOINT RightToe
				{
					OFFSET -0.025372 -0.048144 0.123348
					CHANNELS 3 Zrotation Yrotation Xrotation
					End Site
					{
						OFFSET 0.000000 0.000000 0.000000
					}
				}
			}
		}
	}
	JOINT Spine
	{
		OFFSET -0.002533 0.108963 -0.026696
		CHANNELS 3 Zrotation Yrotation Xrotation
		JOINT Spine1
		{
			OFFSET 0.005487 0.135180 0.001092
			CHANNELS 3 Zrotation Yrotation Xrotation
			JOINT Spine2
			{
				OFFSET 0.001457 0.052922 0.025425
				CHANNELS 3 Zrotation Yrotation Xrotation
				JOINT Neck
				{
					OFFSET -0.002778 0.213870 -0.042857
					CHANNELS 3 Zrotation Yrotation Xrotation
					JOINT Head
					{
						OFFSET 0.005152 0.064970 0.051349
						CHANNELS 3 Zrotation Yrotation Xrotation
						End Site
						{
							OFFSET 0.000000 0.000000 0.000000
						}
					}
				}
				JOINT LeftShoulder
				{
					OFFSET 0.078845 0.121749 -0.034090
					CHANNELS 3 Zrotation Yrotation Xrotation
					JOINT LeftArm
					{
						OFFSET 0.090977 0.030469 -0.008868
						CHANNELS 3 Zrotation Yrotation Xrotation
						JOINT LeftForeArm
						{
							OFFSET 0.259612 -0.012772 -0.027456
							CHANNELS 3 Zrotation Yrotation Xrotation
							JOINT LeftHand
							{
								OFFSET 0.249234 0.008986 -0.001171
								CHANNELS 3 Zrotation Yrotation Xrotation
								End Site
								{
									OFFSET 0.000000 0.000000 0.000000
								}
							}
						}
					}
				}
				JOINT RightShoulder
				{
					OFFSET -0.081759 0.118833 -0.038615
					CHANNELS 3 Zrotation Yrotation Xrotation
					JOINT RightArm
					{
						OFFSET -0.096012 0.032551 -0.009143
						CHANNELS 3 Zrotation Yrotation Xrotation
						JOINT RightForeArm
						{
							OFFSET -0.253742 -0.013329 -0.021401
							CHANNELS 3 Zrotation Yrotation Xrotation
							JOINT RightHand
							{
								OFFSET -0.255298 0.007772 -0.005559
								CHANNELS 3 Zrotation Yrotation Xrotation
								End Site
								{
									OFFSET 0.000000 0.000000 0.000000
								}
							}
						}
					}
				}
			}
		}
	}
}
MOTION
Frames: 15
Frame Time: 0.050000
0.000000 0.940558 0.000000 -0.629552 -0.658359 6.301371 7.031724 -0.317450 -4.406760 1.452559 0.039219 -4.194565 0.593803 4.597409 9.076231 0.000000 0.000000 0.000000 -4.602950 0.546492 -5.985291 -1.950655 0.056263 -2.517363 -0.518052 -5.170581 9.336688 0.000000 0.000000 0.000000 4.131821 0.290005 -5.344617 -2.223993 1.054704 -4.001747 -2.427449 3.961946 5.307365 3.416877 -1.393188 -9.096159 0.000000 0.000000 0.000000 -14.466109 -0.533364 -1.845675 -57.650441 -6.619565 -3.752118 -5.250310 -14.920311 1.147549 0.000000 0.000000 0.000000 11.871085 -3.630108 -2.177164 65.848447 5.668684 -2.867359 4.208906 17.381513 1.246799 0.000000 0.000000 0.000000 
0.000331 0.939750 0.000122 -0.815283 -1.987051 6.891688 7.101711 -0.285705 -3.677547 1.827221 0.088489 -5.732497 1.007799 5.376340 9.744941 0.000000 0.000000 0.000000 -4.686559 0.627594 -7.024869 -1.774174 0.083556 -1.674125 0.325594 -3.629104 9.378665 0.000000 0.000000 0.000000 5.071138 0.319966 -5.521801 -3.118840 1.417066 -4.574509 -2.601187 5.228433 5.037562 2.715743 -0.854196 -9.172115 0.000000 0.000000 0.000000 -15.583471 -0.051742 -2.364808 -56.959351 -6.326788 -3.775312 -5.058782 -15.166502 1.124855 0.000000 0.000000 0.000000 12.028806 -4.393663 -2.483724 66.416437 5.367908 -2.958498 4.296384 16.692344 1.210750 0.000000 0.000000 0.000000 
0.000567 0.939886 0.000092 -0.401357 -1.354972 6.683180 6.652448 -0.311977 -4.201410 2.079215 -0.006858 -4.200533 0.609281 4.375176 8.502502 0.000000 0.000000 0.000000 -5.136414 0.611290 -7.039605 -1.793929 0.125321 -0.995268 -0.479719 -5.031779 8.935602 0.000000 0.000000 0.000000 4.593751 0.277188 -5.120000 -2.543304 1.177208 -5.839348 -3.352119 4.634551 5.458688 2.649220 -0.791310 -9.384309 0.000000 0.000000 0.000000 -14.935101 0.054945 -2.277307 -57.374117 -6.037466 -4.023533 -4.613105 -14.403174 1.020414 0.000000 0.000000 0.000000 13.057409 -3.151538 -1.965155 64.836432 5.546443 -2.953003 4.365449 16.090398 1.163373 0.000000 0.000000 0.000000 
0.000821 0.939909 0.000166 -0.415773 -1.539930 7.019897 6.807459 -0.317418 -4.322356 1.945404 0.029888 -4.725518 0.521282 4.434234 9.256547 0.000000 0.000000 0.000000 -5.211633 0.658556 -7.789776 -1.706778 0.117588 -0.976221 -0.539834 -5.457610 9.747299 0.000000 0.000000 0.000000 4.534280 0.278449 -5.192187 -2.987934 1.356334 -5.781161 -2.821712 4.213082 4.573574 1.842689 -0.412451 -8.243476 0.000000 0.000000 0.000000 -14.795971 0.802395 -2.519961 -58.114083 -6.153291 -3.935516 -3.521604 -14.295640 0.886947 0.000000 0.000000 0.000000 11.797102 -3.028999 -1.924894 65.046754 5.246950 -3.020605 5.266288 16.494694 1.289609 0.000000 0.000000 0.000000 
0.001030 0.940521 0.000230 -0.204637 -0.986071 6.985592 6.305168 -0.335670 -4.465631 2.210684 0.007867 -4.616091 0.503807 4.387883 9.021425 0.000000 0.000000 0.000000 -5.465428 0.632755 -7.556355 -1.851228 0.108842 -1.405029 -0.903889 -6.281134 10.257645 0.000000 0.000000 0.000000 4.196973 0.267997 -5.153855 -2.519697 1.171496 -5.993094 -3.122762 3.879040 4.637337 1.550181 -0.154061 -8.713135 0.000000 0.000000 0.000000 -14.717225 0.762920 -2.494590 -58.300336 -6.459144 -3.810513 -4.047383 -13.924735 0.926426 0.000000 0.000000 0.000000 11.676722 -3.266667 -2.020411 64.780340 5.337848 -2.961815 5.635582 16.389729 1.328193 0.000000 0.000000 0.000000 
0.001264 0.941016 0.000349 -0.097928 -0.998633 7.223756 6.287186 -0.348772 -4.729638 2.181675 0.004678 -4.517257 0.795330 4.999946 9.365721 0.000000 0.000000 0.000000 -5.536350 0.648060 -7.812772 -2.067170 0.108529 -1.737370 -0.889025 -6.478561 10.983084 0.000000 0.000000 0.000000 4.018836 0.259864 -5.120027 -2.524804 1.172098 -6.345751 -2.935196 3.778420 4.552407 1.446867 -0.143485 -8.257554 0.000000 0.000000 0.000000 -14.899410 1.224188 -2.719492 -58.328883 -6.310091 -3.869906 -4.431690 -14.317924 1.001585 0.000000 0.000000 0.000000 11.094068 -3.238274 -1.983635 65.006810 5.241330 -2.997801 5.852398 16.356408 1.346743 0.000000 0.000000 0.000000 
0.001443 0.941382 0.000389 -0.012752 -0.873410 7.330294 6.104061 -0.363893 -4.982053 2.220107 0.001320 -4.493893 0.758246 5.045561 9.685814 0.000000 0.000000 0.000000 -5.558448 0.643280 -7.737246 -2.174790 0.106630 -1.935507 -0.976234 -6.671712 11.115487 0.000000 0.000000 0.000000 3.835779 0.247499 -5.013766 -2.379752 1.115161 -6.380737 -3.088935 3.424138 4.440925 1.493668 -0.162668 -8.531021 0.000000 0.000000 0.000000 -14.639914 1.435965 -2.734544 -58.363145 -6.119659 -3.958301 -5.384359 -14.961951 1.172985 0.000000 0.000000 0.000000 10.967054 -3.148685 -1.965783 64.999789 5.103310 -3.081814 5.959534 16.819541 1.399600 0.000000 0.000000 0.000000 
0.001656 0.941663 0.000265 -0.038197 -0.886117 7.565898 5.853746 -0.387635 -5.402787 2.472672 -0.033440 -4.178650 0.865962 5.158198 9.445792 0.000000 0.000000 0.000000 -5.565309 0.648052 -7.760779 -2.174785 0.095307 -2.123131 -0.975500 -6.706533 11.235126 0.000000 0.000000 0.000000 3.603045 0.238079 -4.959122 -2.247270 1.061169 -6.595004 -3.036948 3.424719 4.301768 1.490921 -0.194812 -8.228361 0.000000 0.000000 0.000000 -14.449168 1.557012 -2.761601 -58.210434 -5.906204 -4.039992 -6.790555 -15.773285 1.425062 0.000000 0.000000 0.000000 10.920442 -3.210787 -1.993413 65.162606 5.060762 -3.093314 6.012720 16.892214 1.413483 0.000000 0.000000 0.000000 
0.001858 0.941861 0.000056 0.002670 -1.160566 7.680658 5.736958 -0.394589 -5.559979 2.296703 -0.030229 -4.027175 0.986054 5.231581 9.083255 0.000000 0.000000 0.000000 -5.640161 0.652625 -7.777423 -2.196359 0.076136 -2.457331 -0.794128 -6.427513 11.355106 0.000000 0.000000 0.000000 3.362424 0.226364 -4.831643 -2.164680 1.024309 -6.690638 -2.927414 3.484978 4.246254 1.653804 -0.309629 -8.281230 0.000000 0.000000 0.000000 -14.066827 1.788920 -2.789018 -58.394416 -5.907271 -4.057121 -7.493309 -16.572918 1.600716 0.000000 0.000000 0.000000 10.900653 -3.054228 -1.934748 65.064301 5.029193 -3.113981 6.072354 17.051433 1.433255 0.000000 0.000000 0.000000 
0.002024 0.942035 -0.000138 -0.006096 -1.479357 7.745024 5.620745 -0.400381 -5.708289 2.333597 -0.044283 -3.840046 1.212843 5.588575 9.059102 0.000000 0.000000 0.000000 -5.788543 0.652429 -7.734933 -1.992985 0.042407 -2.748213 -0.686503 -6.300546 11.480647 0.000000 0.000000 0.000000 3.132798 0.213978 -4.669378 -2.104284 0.995452 -6.859136 -2.749396 3.668944 4.393311 1.936961 -0.477111 -8.552048 0.000000 0.000000 0.000000 -13.783451 1.704294 -2.695033 -58.181034 -5.996760 -4.013775 -8.574758 -17.240287 1.827771 0.000000 0.000000 0.000000 11.042095 -2.859569 -1.856116 64.675257 5.517971 -2.855630 6.189646 16.665530 1.410422 0.000000 0.000000 0.000000 
0.002157 0.942107 -0.000230 -0.120887 -1.963959 7.732931 5.741711 -0.382760 -5.485165 2.393946 -0.036769 -4.088517 1.286433 5.690224 9.135740 0.000000 0.000000 0.000000 -5.648036 0.655953 -7.627541 -1.948820 0.015413 -3.137559 -0.516918 -6.118326 11.721907 0.000000 0.000000 0.000000 3.173148 0.213361 -4.619447 -2.186031 1.019772 -6.665124 -2.630891 3.813312 4.326495 2.084081 -0.600888 -8.434731 0.000000 0.000000 0.000000 -13.678349 1.627768 -2.620198 -58.115324 -6.221954 -3.887952 -9.008290 -18.065833 1.987109 0.000000 0.000000 0.000000 11.095140 -2.405388 -1.668405 64.649529 6.084040 -2.551416 5.960122 16.339160 1.345406 0.000000 0.000000 0.000000 
0.002296 0.942024 -0.000226 -0.196302 -2.134578 7.764944 5.967810 -0.376236 -5.496365 2.278085 -0.032108 -4.032058 1.222462 5.566535 9.153911 0.000000 0.000000 0.000000 -5.574106 0.655724 -7.547404 -2.053466 0.021910 -3.144358 -0.356266 -5.809830 11.648689 0.000000 0.000000 0.000000 3.069474 0.208983 -4.557927 -2.000978 0.942823 -6.521292 -2.566647 3.868746 4.190316 2.724156 -0.978063 -8.991088 0.000000 0.000000 0.000000 -13.594016 1.555717 -2.569479 -57.952054 -6.255229 -3.843830 -9.884654 -18.528482 2.178457 0.000000 0.000000 0.000000 11.109202 -2.200071 -1.581945 64.407921 6.477388 -2.318771 6.220017 16.497694 1.391552 0.000000 0.000000 0.000000 
0.002519 0.942119 -0.000233 -0.497341 -2.601950 7.720443 6.185941 -0.357237 -5.310329 2.386628 -0.046863 -3.946367 1.223579 5.475924 8.988464 0.000000 0.000000 0.000000 -5.212690 0.666683 -7.550741 -2.040163 0.012347 -3.269475 -0.136623 -5.523353 11.842892 0.000000 0.000000 0.000000 3.094844 0.206718 -4.487412 -1.793822 0.852881 -6.500167 -2.395143 4.011595 4.110051 3.001756 -1.157202 -9.164860 0.000000 0.000000 0.000000 -13.644841 1.315897 -2.440465 -57.648972 -6.353895 -3.759892 -10.406150 -18.759625 2.296849 0.000000 0.000000 0.000000 11.517686 -1.851835 -1.472796 64.093328 6.928043 -2.087322 5.916659 16.429921 1.342170 0.000000 0.000000 0.000000 
0.002880 0.941917 -0.000389 -0.662536 -2.800248 7.613451 6.531094 -0.339694 -5.164799 2.193604 -0.037525 -3.866626 1.238414 5.361577 8.552975 0.000000 0.000000 0.000000 -5.083251 0.666506 -7.498134 -1.999807 0.022880 -3.022243 0.087252 -5.025308 11.566525 0.000000 0.000000 0.000000 2.980643 0.196743 -4.323287 -1.469910 0.719565 -6.445098 -2.271974 4.059099 4.006525 3.723275 -1.694431 -8.874877 0.000000 0.000000 0.000000 -13.545237 1.197436 -2.358753 -57.381035 -6.345452 -3.733730 -11.219284 -19.105258 2.476063 0.000000 0.000000 0.000000 11.667796 -1.565123 -1.362034 63.888976 7.251483 -1.910388 5.692449 16.864046 1.352688 0.000000 0.000000 0.000000 
0.003433 0.941933 -0.000685 -0.734868 -3.167451 7.554208 6.615107 -0.328221 -5.068289 2.097835 -0.038839 -3.731222 1.289004 5.381335 8.422252 0.000000 0.000000 0.000000 -5.133707 0.666779 -7.460882 -2.009567 0.024400 -2.987299 0.399776 -4.448105 11.498702 0.000000 0.000000 0.000000 2.971027 0.201142 -4.352604 -1.368262 0.671808 -6.320113 -2.239368 4.180077 3.930636 4.093654 -1.902699 -9.243261 0.000000 0.000000 0.000000 -13.398322 0.947373 -2.208843 -57.371803 -6.347413 -3.724700 -11.345176 -19.116300 2.499715 0.000000 0.000000 0.000000 11.742552 -1.370056 -1.288163 63.891680 7.727796 -1.649657 5.260577 16.912516 1.299725 0.000000 0.000000 0.000000 
